<svg id="svg" version="1.1" xmlns="http://www.w3.org/2000/svg" style="display: block;" viewBox="0 0 410 410"><path d="M0 0 C135.3 0 270.6 0 410 0 C410 135.3 410 270.6 410 410 C274.7 410 139.4 410 0 410 C0 274.7 0 139.4 0 0 Z " transform="translate(0,0)" style="fill: #638B60;"/><path d="M0 0 C1.18203758 -0.00855011 1.18203758 -0.00855011 2.38795471 -0.01727295 C4.04760427 -0.02665164 5.70727184 -0.03322824 7.36694336 -0.03710938 C9.84198723 -0.04673147 12.31616864 -0.07778856 14.79101562 -0.109375 C32.06561461 -0.22438837 48.07739507 2.78486242 64.44140625 8.203125 C65.09286621 8.41275879 65.74432617 8.62239258 66.41552734 8.83837891 C89.18509056 16.26808567 109.24584413 29.69196336 126.44140625 46.203125 C127.77751953 47.46189453 127.77751953 47.46189453 129.140625 48.74609375 C158.5470177 77.16817205 176.37761411 118.25479306 177.6796875 159.109375 C178.44650982 204.80643367 164.19520024 246.84274024 132.44140625 280.203125 C131.90773438 280.7693457 131.3740625 281.33556641 130.82421875 281.91894531 C118.12173803 295.32006247 104.61991686 305.58421826 88.30761719 314.21289062 C86.53245214 315.15481493 84.77161734 316.12360089 83.01171875 317.09375 C73.02760288 322.42193154 73.02760288 322.42193154 67.44140625 321.203125 C58.24522202 317.49408997 51.28433305 311.9882329 46.875 303.015625 C38.55137852 282.52671058 42.24483069 258.86191901 50.42382812 238.79248047 C56.81574104 223.97086588 64.92747078 209.71706047 76.44140625 198.203125 C80.89587361 197.70110095 83.61768874 199.05258146 87.50390625 201.140625 C96.45041164 205.91284666 105.80592461 206.8129164 115.7421875 204.40234375 C124.18834904 201.2144929 131.41139576 195.74814073 136.44140625 188.203125 C137.27741295 185.37681382 137.27741295 185.37681382 136.44140625 182.203125 C130.36117045 174.48991158 119.35075941 169.0676309 109.78515625 167.38671875 C101.24635923 166.71784632 93.88708198 168.00530437 86.44140625 172.203125 C85.590625 172.67621094 84.73984375 173.14929688 83.86328125 173.63671875 C56.39341107 190.00091284 41.6790296 219.8579778 32.51953125 249.3515625 C31.44140625 252.203125 31.44140625 252.203125 29.44140625 253.203125 C28.6856108 219.34348883 35.05376533 189.87959199 58.44140625 164.203125 C59.12460938 163.43871094 59.8078125 162.67429688 60.51171875 161.88671875 C68.39511336 153.52333886 78.23016337 146.47852957 88.44140625 141.203125 C92.17014963 141.33629441 95.15903189 142.11395415 98.70703125 143.234375 C108.59739147 145.80007514 119.45429671 145.26009183 128.44140625 140.203125 C136.43944249 134.66418647 142.46253577 127.06111318 146.44140625 118.203125 C146.92753072 115.02873008 146.92753072 115.02873008 146.44140625 112.203125 C139.53861636 106.00831356 128.97218159 103.84189528 119.89453125 103.9921875 C109.77554431 104.86229147 100.27691342 109.68232265 93.56640625 117.265625 C91.86160227 119.36022084 90.25844309 121.46597931 88.71484375 123.68359375 C85.82223554 126.88931934 82.74079919 128.49110665 78.94140625 130.453125 C67.58990411 136.5862862 57.73178193 144.22928682 48.44140625 153.203125 C47.77753906 153.84121094 47.11367187 154.47929687 46.4296875 155.13671875 C23.35314954 179.14942457 14.76532951 214.9975443 15.2265625 247.38671875 C16.01970576 271.61946225 24.0730877 293.41209376 37.35083008 313.453125 C40.08560953 317.58145712 42.33174044 321.73063348 44.44140625 326.203125 C45.43140625 327.688125 45.43140625 327.688125 46.44140625 329.203125 C22.81451181 336.44019177 -3.70981933 334.20602473 -27.55859375 329.203125 C-26.77484375 328.1925 -25.99109375 327.181875 -25.18359375 326.140625 C-6.53146904 301.06583471 4.89380727 274.27888564 4.75390625 242.578125 C4.75208344 241.92115631 4.75026062 241.26418762 4.74838257 240.58731079 C4.69833824 229.84082052 4.01246325 219.63918709 1.44140625 209.203125 C1.19197266 208.15608398 1.19197266 208.15608398 0.9375 207.08789062 C-4.01741319 186.88285571 -13.03217463 170.18953663 -28.04296875 155.69140625 C-30.02003892 153.73582597 -31.73414823 151.82635764 -33.43359375 149.640625 C-40.49709725 141.23264782 -50.40311787 135.38955532 -60.00146484 130.33447266 C-65.9176307 127.18687467 -70.69034802 123.53198835 -74.93359375 118.265625 C-82.0274778 110.0024194 -90.4619052 104.96272628 -101.4765625 104.04296875 C-110.45143748 103.67761986 -118.49749617 106.12452792 -126.09765625 110.82421875 C-127.9674571 112.58903078 -128.32666465 113.6519049 -128.55859375 116.203125 C-125.79169118 126.35479514 -118.40471323 134.82740624 -109.55859375 140.203125 C-98.61414296 145.39943987 -88.03627831 145.31571742 -76.55859375 142.203125 C-68.46764576 141.00937858 -63.98031631 144.537771 -57.55859375 149.203125 C-56.73617187 149.77804688 -55.91375 150.35296875 -55.06640625 150.9453125 C-50.56923819 154.23112216 -47.23432371 157.57051457 -44.06640625 162.140625 C-42.48123078 164.30894792 -40.73520737 166.14608821 -38.87109375 168.078125 C-22.88125797 185.87870994 -12.66248384 210.75163529 -13.41796875 234.73828125 C-13.464375 235.55167969 -13.51078125 236.36507812 -13.55859375 237.203125 C-17.34038892 234.68192822 -18.18432877 231.82071216 -19.80859375 227.765625 C-23.79347577 218.27497849 -28.62318242 210.01919329 -35.62890625 202.421875 C-37.55409403 200.20829877 -39.27651181 197.89206631 -41.00219727 195.52148438 C-50.92285755 182.01614587 -64.61505311 170.79796097 -81.39453125 167.57421875 C-91.94302105 166.33705019 -101.37003591 168.95061974 -109.93359375 175.203125 C-114.92524547 179.05820213 -114.92524547 179.05820213 -118.49609375 184.140625 C-118.61247553 187.98122388 -116.53610554 190.16207494 -113.99609375 192.8671875 C-104.65244918 201.70471799 -93.73768498 205.93001897 -80.98828125 205.7109375 C-75.59177847 205.34358663 -71.23422343 203.20545717 -66.60839844 200.51757812 C-63.48573193 198.76664816 -61.89542461 198.15217579 -58.3046875 198.6953125 C-55.07577001 200.46823163 -54.28645952 201.64745116 -52.74609375 204.953125 C-50.80891889 208.8477063 -48.76739464 212.50533566 -46.33618164 216.11547852 C-31.59468147 238.02008002 -22.43116056 264.61919677 -26.55859375 291.203125 C-29.56834507 302.96969591 -35.89523486 311.93119723 -45.6015625 319.14453125 C-48.70265372 320.82196782 -51.35415659 321.54159008 -54.80004883 320.57324219 C-55.55181396 320.21907227 -56.3035791 319.86490234 -57.078125 319.5 C-58.35236328 318.90360718 -58.35236328 318.90360718 -59.65234375 318.29516602 C-60.998125 317.63085571 -60.998125 317.63085571 -62.37109375 316.953125 C-63.30308594 316.49929443 -64.23507813 316.04546387 -65.1953125 315.57788086 C-103.00782061 296.67486418 -133.68481441 261.6277455 -147.42529297 221.68359375 C-151.42851101 209.38585542 -153.93104163 197.01604529 -155.55859375 184.203125 C-155.69007813 183.2646875 -155.8215625 182.32625 -155.95703125 181.359375 C-160.91377102 141.16959304 -147.43776118 97.76011203 -122.87207031 65.875 C-96.47133896 32.27050031 -58.48855962 6.93885395 -15.49324036 0.91369629 C-10.3153099 0.31834047 -5.21040414 0.0304051 0 0 Z " transform="translate(196.55859375,39.796875)" style="fill: #000000;"/><path d="M0 0 C135.3 0 270.6 0 410 0 C410 135.3 410 270.6 410 410 C274.7 410 139.4 410 0 410 C0 274.7 0 139.4 0 0 Z M75 55 C74.11078857 55.77972168 74.11078857 55.77972168 73.20361328 56.57519531 C57.07680353 70.82970435 43.67891848 87.29018755 33 106 C32.64873047 106.60295898 32.29746094 107.20591797 31.93554688 107.82714844 C6.2821179 152.18903047 -0.39374559 207.6108048 12.6875 257.0625 C22.77592441 292.7877259 40.71442333 322.0830958 66 349 C66.87205078 349.95326172 66.87205078 349.95326172 67.76171875 350.92578125 C101.7578946 386.80587617 153.57927884 404.89127639 201.78515625 407.1796875 C257.84200058 408.29709968 308.56955553 386.49163171 348.91015625 348.25390625 C375.82756815 322.32793561 394.66029652 287.90818841 402.75 251.5 C402.94875732 250.61159424 403.14751465 249.72318848 403.35229492 248.80786133 C406.215627 235.16377101 407.34092749 221.55651419 407.26074219 207.64282227 C407.24998358 205.43412977 407.2607454 203.22624702 407.2734375 201.01757812 C407.31447961 162.78195781 395.18383336 124.21725019 373 93 C372.29488281 92.00355469 371.58976562 91.00710937 370.86328125 89.98046875 C338.68355209 45.8994394 291.86460462 16.27374694 237.78027344 7.52368164 C179.15246753 -0.88334392 119.55247588 15.80152136 75 55 Z " transform="translate(0,0)" style="fill: #000000;"/><path d="M0 0 C3.02092289 1.63235834 5.04145213 3.56813897 7.2265625 6.203125 C8.2784375 7.2859375 8.2784375 7.2859375 9.3515625 8.390625 C13.24324112 14.22814293 14.97391917 21.2277961 14.2265625 28.203125 C12.62903496 35.83162862 10.30386869 42.27752543 3.8203125 46.9296875 C-3.38274511 51.39982031 -9.52291593 53.47041288 -18.046875 51.7421875 C-25.7613677 49.50419474 -30.65038322 45.52331643 -34.6484375 38.578125 C-38.32164931 31.64524178 -39.02763902 24.14826242 -37.08984375 16.5078125 C-34.37999032 9.15410237 -30.66068626 3.46285831 -23.5859375 -0.171875 C-15.2485617 -3.95411649 -8.36829674 -3.6789416 0 0 Z " transform="translate(217.7734375,153.796875)" style="fill: #638C60;"/><path d="M0 0 C1.7109375 1.7109375 1.7109375 1.7109375 2.2109375 5.3984375 C1.56834873 18.10511217 -2.22173686 30.69615704 -11.390625 39.796875 C-19.49066451 46.58030031 -28.81970684 49.82785247 -39.2890625 49.9609375 C-40.5059375 49.98671875 -41.7228125 50.0125 -42.9765625 50.0390625 C-46.55027195 49.68506298 -47.97554563 49.4497332 -50.2890625 46.7109375 C-52.31482273 35.52457034 -49.13645664 24.68434499 -43.0390625 15.3359375 C-36.3489641 6.43482578 -26.88000046 0.90264015 -15.94921875 -0.97265625 C-4.20726115 -2.36927676 -4.20726115 -2.36927676 0 0 Z " transform="translate(292.2890625,98.2890625)" style="fill: #658D63;"/><path d="M0 0 C8.6282259 4.54250717 13.79425922 16.59526051 16.65625 25.3984375 C19.26481147 36.65203923 17.00009756 47.78723097 11.34375 57.7734375 C4.09069611 69.3262976 4.09069611 69.3262976 -0.27734375 71.25 C-2.34375 71.3984375 -2.34375 71.3984375 -4.2734375 70.31640625 C-13.72346618 61.91005543 -19.56794819 50.91906689 -20.50390625 38.2265625 C-20.94387278 26.21356328 -17.30661841 14.41723053 -9.46875 5.19140625 C-3.51234329 -0.90150144 -3.51234329 -0.90150144 0 0 Z " transform="translate(207.34375,60.6015625)" style="fill: #648C62;"/><path d="M0 0 C11.08114397 6.11842305 17.52942916 15.33700866 20.984375 27.28125 C24.27260124 40.32575189 24.27260124 40.32575189 21.296875 45.78125 C19.01938806 48.05873694 13.37921234 47.15187434 10.22485352 47.16845703 C-0.28540789 46.97376179 -10.10396374 43.15434926 -17.703125 35.78125 C-27.75539146 24.72141371 -30.10147724 12.29897603 -29.703125 -2.21875 C-20.10462748 -6.46782033 -9.32130314 -4.20266847 0 0 Z " transform="translate(147.703125,101.21875)" style="fill: #648C61;"/></svg>